<?xml version="1.0" encoding="utf-8" ?>
<svg xmlns="http://www.w3.org/2000/svg" xmlns:xlink="http://www.w3.org/1999/xlink" width="512" height="512">
	<path fill="#E57783" d="M458.845 62.7247C460.694 64.132 464.753 67.2571 465.627 69.5403C471.492 75.4303 480.217 90.4352 483.337 98.1826L487.735 109.5C499.975 146.094 496.797 188.78 493.524 226.75C491.515 250.054 486.326 302.603 468.103 319.978C468.447 318.145 469.488 316.323 470.198 314.589C476.923 298.177 481.043 278.373 483.583 260.961L488.395 208.708L488.481 187.245C488.486 150.101 485.819 122.073 470.75 88L463.842 73.3327C461.87 70.5219 459.631 66.0099 458.845 62.7247Z"/>
	<path d="M468.103 319.978L468.1 320.019C454.528 350.029 437.662 370.996 409.545 387.563L364.071 411.347L349.622 419.821C331.236 431.122 313.81 443.796 300.718 461.265C297.051 466.157 293.874 472.145 288.345 475.161L288.054 475.318C268.133 486.218 250.635 465.424 237.5 453.729C193.19 414.276 142.039 380.761 80.626 380.144C66.012 379.997 46.6162 382.242 32.8059 387.957C32.7373 389.213 33.1031 390.504 33.1831 391.765L39.3288 464.368C39.6203 469.349 40.824 475.241 40.0729 480.165C39.0466 486.892 33.2418 493.105 25.8594 490.377L25.5 490.237C23.2657 489.39 21.3392 487.544 20.0348 485.576L19.7972 485.209C12.0512 473.417 11.2242 440.633 10.1802 426.75L7.16186 367.053C7.06631 364.132 6.60797 361.254 6.56939 358.331L6.16721 253.385L5.06267 220.534C4.98936 218.349 4.60897 216.188 4.56781 214L4.55147 101.118C4.59838 98.5879 5.07091 96.1086 5.12071 93.6033L5.44998 48.5C5.72221 42.3912 5.07114 34.6772 8.74291 29.4285C12.9807 23.3706 20.8549 22.369 24.493 29.79C26.5584 34.003 28.936 47.1144 29.6488 52.47L43.4289 44.3763C94.1033 18.1143 150.721 32.3476 196.888 60.6297L211.027 69.7639L225.504 81.1915C233.616 88.0642 242.074 95.935 252.382 99.1765C257.188 97.4122 260.586 92.7752 264.279 89.3931C282.214 72.9691 303.92 62.5948 326.106 53.1947C366.39 36.1272 412.437 19.2569 449.625 53.0916C452.911 56.0815 455.856 59.4448 458.845 62.7247C459.631 66.0099 461.87 70.5219 463.842 73.3327L470.75 88C485.819 122.073 488.486 150.101 488.481 187.245L488.395 208.708L483.583 260.961C481.043 278.373 476.923 298.177 470.198 314.589C469.488 316.323 468.447 318.145 468.103 319.978ZM29.7301 350.368C39.187 336.048 61.5985 328.305 77.9 327.316C106.251 325.595 118.446 334.138 140.692 348.632L161.774 362.067C182.132 375.072 197.263 383.296 220.25 391.737C241.936 399.7 246.778 400.611 263.653 417.563C264.525 417.005 265.339 415.802 266.032 415.018C271.575 408.741 277.738 403.557 284.523 398.628L343.852 354.843C381.152 324.175 414.143 280.576 433.093 236.581L441.375 216.019C448.773 194.915 454.497 170.082 456.222 147.736C457.924 125.698 454.363 103.996 448.044 82.9284L447.916 82.5033C447.027 79.8589 446.167 77.4561 443.496 76.2145C423.102 79.6467 402.237 81.4843 381.632 83.2082L352.154 85.9901C336.404 87.7214 321.667 90.5078 306.458 95.0859L296.774 98.125C289.149 100.723 285.24 102.437 277.613 99.121C271.738 105.817 269.094 116.236 258.5 116.62C250.846 116.897 244.722 112.16 239.005 107.705C223.009 95.2436 209.799 79.6444 193.25 67.764C148.288 35.4854 90.779 31.6879 42.6242 59.2495C37.506 62.179 29.5934 65.6645 29.6851 71.8139L29.0801 141.274C28.9899 143.286 28.6413 145.248 28.592 147.28L27.8445 190.63L24.848 253.05L24.8481 289.007L29.1801 342.125C29.3188 344.86 29.194 347.666 29.7301 350.368ZM448.044 82.9284C454.363 103.996 457.924 125.698 456.222 147.736C454.497 170.082 448.773 194.915 441.375 216.019L433.093 236.581C414.143 280.576 381.152 324.175 343.852 354.843L284.523 398.628C277.738 403.557 271.575 408.741 266.032 415.018C265.339 415.802 264.525 417.005 263.653 417.563C246.778 400.611 241.936 399.7 220.25 391.737C197.263 383.296 182.132 375.072 161.774 362.067L140.692 348.632C118.446 334.138 106.251 325.595 77.9 327.316C61.5985 328.305 39.187 336.048 29.7308 350.368L31.6091 372.453C51.2018 363.975 76.476 363.293 97.1847 366.153C150.144 373.467 180.309 390.383 221.112 422.567L237.486 435.282L263.595 458.692C277.436 470.482 276.071 464.393 283.806 451.875C298.718 427.745 341.623 403.85 365.853 391.638L390 379.786C447.993 349.785 467.217 290.528 470.678 229.5L471.303 179.493C470.142 143.883 463.624 104.79 447.155 73.0174L448.828 81.875L448.044 82.9284Z"/>
	<path fill="#E57783" d="M277.613 99.121C288.411 84.7777 306.898 75.4762 322.976 68.179C353.745 54.2144 409.756 33.1639 435.415 63.7842C438.524 67.495 441.104 71.9961 443.496 76.2145C423.102 79.6467 402.237 81.4843 381.632 83.2082L352.154 85.9901C336.404 87.7214 321.667 90.5078 306.458 95.0859L296.774 98.125C289.149 100.723 285.24 102.437 277.613 99.121Z"/>
	<path fill="#E57783" d="M448.044 82.9284L448.828 81.875L447.155 73.0174C463.624 104.79 470.142 143.883 471.303 179.493L470.678 229.5C467.217 290.528 447.993 349.785 390 379.786L365.853 391.638C341.623 403.85 298.718 427.745 283.806 451.875C276.071 464.393 277.436 470.482 263.595 458.692L237.486 435.282L221.112 422.567C180.309 390.383 150.144 373.467 97.1847 366.153C76.476 363.293 51.2018 363.975 31.6091 372.453L29.7308 350.368C39.187 336.048 61.5985 328.305 77.9 327.316C106.251 325.595 118.446 334.138 140.692 348.632L161.774 362.067C182.132 375.072 197.263 383.296 220.25 391.737C241.936 399.7 246.778 400.611 263.653 417.563C264.525 417.005 265.339 415.802 266.032 415.018C271.575 408.741 277.738 403.557 284.523 398.628L343.852 354.843C381.152 324.175 414.143 280.576 433.093 236.581L441.375 216.019C448.773 194.915 454.497 170.082 456.222 147.736C457.924 125.698 454.363 103.996 448.044 82.9284ZM263.766 421.625C262.621 423.206 261.694 424.797 260.998 426.625L261.875 427.238C263.534 426.559 264.947 423.708 264.403 421.979L263.766 421.625Z"/>
	<path fill="#9A3E46" d="M349.691 119.198L350.154 119.875C349.418 122.568 349.416 127.198 348.54 129.311C347.906 127.025 346.637 125.358 344.974 123.717L349.691 119.198Z"/>
	<path d="M186.872 80.625L187.113 80.5655C193.996 79.8238 229.203 110.477 235.125 115.689L234.375 116.249L234.059 116.211C231.531 115.679 228.858 113.318 226.858 111.773L213.11 100.546C208.995 97.2573 204.837 94.0012 200.47 91.0507L193.883 86.8739C192.588 86.1291 183.077 82.3705 186.872 80.625Z"/>
	<path fill="#E57783" d="M349.691 119.198C353.851 114.796 357.329 113.807 362.574 116.921C382.32 128.649 398.664 154.214 399.215 177.007C400.138 215.192 371.775 241.055 337.755 252.36C334.762 253.355 331.54 254.604 328.368 254.817L328.146 254.807C334.408 235.022 339.05 211.203 324.868 193.456C321.583 190.354 320.499 187.391 321.677 182.75L321.744 182.5C321.957 181.59 322.29 180.886 322.718 180.054L322.698 179.734C340.22 167.25 350.639 152.203 348.55 129.311C349.416 127.198 349.418 122.568 350.154 119.875L349.691 119.198ZM322.718 180.054C322.29 180.886 321.957 181.59 321.744 182.5L321.677 182.75C320.499 187.391 321.583 190.354 324.868 193.456L325.428 192.925C327.504 190.346 328.994 188.251 329.644 184.947C328.541 181.806 325.938 180.449 322.718 180.054Z"/>
	<path fill="#FAACAE" d="M329.644 184.947C330.975 187.181 330.85 190.729 331.291 193.265C329.862 193.201 326.616 193.581 325.428 192.925C327.504 190.346 328.994 188.251 329.644 184.947Z"/>
	<path fill="#E57783" d="M175.129 251.857C168.747 259.633 151.691 251.428 145 247.758C121.204 234.708 96.2228 207.609 92.4651 179.963C90.9573 168.871 93.0913 154.065 98.3063 144.416C105.969 130.236 126.852 112.731 143.521 114.333C144.694 121.593 142.926 129.245 143.964 136.619C146.747 156.388 155.505 169.062 173.463 176.86C161.459 204.855 164.513 223.455 175.129 251.857Z"/>
	<path d="M173.463 176.86C190.986 144.358 231.876 132.402 266.489 139.694C286.976 144.01 310.252 154.813 320.156 174.431C321.002 176.106 321.564 178.276 322.698 179.734L322.718 180.054C322.29 180.886 321.957 181.59 321.744 182.5L321.677 182.75C320.499 187.391 321.583 190.354 324.868 193.456C339.05 211.203 334.408 235.022 328.146 254.807L326.543 261.536C323.333 278.488 320.849 282.761 305.981 289.935C299.819 292.908 294.347 293.251 295.279 300.896C295.679 304.172 296.405 307.875 297.662 310.921C300.782 308.844 303.364 306.156 306.632 304.147C311.549 301.123 317.539 299.16 321.908 295.391C325.62 292.189 328.271 285.692 332.871 283.875C337.741 281.951 339.668 288.419 338.509 292.009C336.996 296.701 331.335 300.936 328.009 304.47L335.796 310.145C338.673 312.153 341.979 314.033 343.564 317.309L343.713 317.625C346.685 323.801 340.43 328.334 334.766 327.657C327.006 326.729 320.006 320.261 315.385 314.418C312.812 316.115 303.604 325.383 301.928 327.59C299.797 330.396 299.093 333.996 296.125 336.121C286.427 343.065 262.865 345.887 251.413 345.993C233.381 346.159 223.568 335.861 211.243 324.391L200.925 314.987L200.257 316.304C197.014 322.446 186.067 325.879 179.5 324.508L178.898 324.392C165.549 321.415 180.579 308.997 186.422 305.944C181.689 302.33 176.903 297.092 175.215 291.25C174.269 287.978 175.096 284.146 178.935 283.525C181.065 283.18 184.06 286.585 185.442 287.854L190.375 292.009C195.52 295.988 201.122 299.219 206.383 303.002C210.311 305.827 213.813 309.207 217.762 311.989L216.162 295.849L206.678 293.026C192.748 287.668 186.603 277.999 180.838 264.81L175.129 251.857C164.513 223.455 161.459 204.855 173.463 176.86ZM241.999 151.339C230.373 152.398 218.861 154.496 208.309 159.704C185.811 170.808 175.665 196.033 179.194 220.091C181.415 235.227 193.169 266.7 204.912 275.41L208.146 277.431C211.71 279.451 215.858 280.204 219.565 281.923L219.995 282.118C226.493 285.119 230.207 292.79 232.792 299.086C236.765 292.346 244.548 286.587 250.065 295.226L250.291 295.57C253.197 300.072 254.172 309.457 252.972 314.717L252.68 315.934C251.784 319.673 248.832 322.755 245.25 324.005L244.848 324.153C239.492 325.644 234.382 320.322 233.348 315.489C232.993 313.831 233.077 310.736 232 309.504C231.091 310.951 230.987 322.276 231.979 324.211C237.788 332.379 248.514 330.089 257.23 329.747C264.59 329.458 271.976 328.952 279.254 327.819C291.62 325.894 289.049 324.303 284.371 313.952C282.106 308.94 280.069 303.077 279.97 297.537C279.879 292.48 283.454 290.836 286.676 287.677C288.816 285.579 290.434 282.592 293.125 281.107C297.517 278.683 302.462 277.927 306.416 274.573C312.693 269.247 315.836 259.102 318.541 251.666C326.248 230.476 329.318 220.211 321.101 199.257C315.68 185.432 313.861 180.041 301.324 169.737C283.123 154.778 264.564 150.933 241.999 151.339Z"/>
	<path d="M254.647 257.125C258.129 256.698 260.373 261.662 261.965 264C263.083 265.642 270.182 274.276 264.034 273.879L261.221 273.744C258.708 273.171 256.135 272.729 253.578 272.412C250.167 271.99 248.785 272.561 248.702 268.25C248.626 264.311 250.667 258.616 254.647 257.125Z"/>
	<path d="M263.183 291.031C270.626 290.434 276.467 310.291 275.815 313.808L275.543 315.052C274.775 317.547 272.382 319.375 270.137 320.503L269.659 320.683C268.029 321.348 266.828 321.482 265.123 320.893L264.75 320.758C256.347 317.803 255.816 303.349 258.079 296.162L258.212 295.75C259.049 293.098 260.326 291.671 263.183 291.031Z"/>
	<path d="M287.886 215.315C299.084 214.1 302.155 253.706 284.337 256.3L284 256.347C278.49 257.178 273.309 256.056 268.186 254.123C262.79 251.689 257.036 246.92 256.065 240.75C254.572 231.264 279.786 216.45 287.886 215.315ZM275.074 241.875C267.049 244.089 274.213 247.952 278.77 248.088C279.749 247.7 280.612 247.385 281.404 246.657C283.532 240.143 278.03 243.545 275.554 241.878L275.074 241.875ZM282.791 230.625C280.296 232.018 278.265 233.97 276.154 235.875L276.875 236.082C279.031 235.912 281.086 235.476 283.255 235.483C283.381 234.538 284.257 230.595 282.791 230.625Z"/>
	<path d="M213.569 217.266C216.122 217.217 218.996 216.968 221.457 217.734L222.177 217.952C230.576 219.961 243.612 225.511 248.968 232.881C254.725 240.802 249.466 253.026 240.827 256.317C228.683 259.337 209.483 254.062 205.799 240.451L205.683 240C205.141 237.963 205.656 234.421 205.259 233.5L204.948 232.765C202.898 226.259 207.242 219.1 213.569 217.266ZM234.871 240.375C233.479 241.091 229.012 242.573 230.08 244.533C230.96 246.149 232.415 247.425 234.188 247.954L234.625 248.045C241.018 249.551 240.217 240.504 235.75 240.334L234.871 240.375ZM217.118 230.875C215.138 232.259 216.855 233.227 218.48 233.751L221.101 234.478C224.073 235.184 226.007 235.566 229.125 235.377L229.917 235.182C228.856 233.91 221.684 231.498 219.898 231.105L219.489 231.011C218.613 230.815 218.001 230.687 217.118 230.875Z"/>
</svg>
